<?xml version="1.0" encoding="UTF-8"?>
<svg version="1.1" xmlns="http://www.w3.org/2000/svg" width="64" height="64">
<path d="M0 0 C8.34468007 4.97590182 13.53387008 11.86345977 16.109375 21.2578125 C17.10789012 32.35758522 16.45884702 41.9922991 9.359375 51.0703125 C3.70168013 57.1280464 -3.34488592 60.84888618 -11.625 61.59375 C-22.35447774 61.83515993 -31.19802606 60.58332943 -39.359375 52.9609375 C-46.75303791 44.73737365 -48.47252567 36.02335615 -48.203125 25.24609375 C-47.72879865 16.86039919 -44.11592977 9.8548755 -37.890625 4.2578125 C-27.15195714 -3.81766573 -12.32399863 -5.91386512 0 0 Z " fill="#10122E" transform="translate(47.890625,2.7421875)"/>
<path d="M0 0 C0.66 0.33 1.32 0.66 2 1 C2.22257053 11.90595611 2.22257053 11.90595611 1 17 C-0.32 17.99 -1.64 18.98 -3 20 C3.93 20.495 3.93 20.495 11 21 C11 26.94 11 32.88 11 39 C4.85969465 41.30261451 1.18952364 42.48380022 -5 42.375 C-5.66 42.38660156 -6.32 42.39820313 -7 42.41015625 C-12.60138939 42.37733561 -15.32778204 41.12708173 -21 39 C-21 33.06 -21 27.12 -21 21 C-16.38 20.67 -11.76 20.34 -7 20 C-7.99 19.34 -8.98 18.68 -10 18 C-10.40729228 15.67843403 -10.74438677 13.3431213 -11 11 C-11.33 10.67 -11.66 10.34 -12 10 C-12.07179964 8.48071962 -12.08392007 6.95832518 -12.0625 5.4375 C-12.05347656 4.61121094 -12.04445313 3.78492188 -12.03515625 2.93359375 C-12.02355469 2.29550781 -12.01195312 1.65742188 -12 1 C-7.5859418 -1.58311477 -4.93050159 -0.87476641 0 0 Z " fill="#FEFEFE" transform="translate(37,22)"/>
<path d="M0 0 C5.75874942 3.26329134 8.77208754 7.98137742 10.6875 14.25 C11.17013392 18.49717851 11.06800411 22.73085293 11 27 C11 27.66 11 28.32 11 29 C11.73669922 29.55107422 11.73669922 29.55107422 12.48828125 30.11328125 C14.90028816 33.12361545 14.31282429 36.50810751 14.1875 40.1875 C14.16719727 41.31188477 14.16719727 41.31188477 14.14648438 42.45898438 C14.11118539 44.30629767 14.05737917 46.15324066 14 48 C12.68 48.66 11.36 49.32 10 50 C10 44.39 10 38.78 10 33 C5.05 33 0.1 33 -5 33 C-3.68 31.68 -2.36 30.36 -1 29 C-0.39578136 26.1613124 0.0071114 23.61406146 0.25 20.75 C0.36601563 19.63238281 0.36601563 19.63238281 0.484375 18.4921875 C0.67198359 16.66300372 0.83813403 14.83164126 1 13 C-0.58226965 12.80372609 -2.16589271 12.61834462 -3.75 12.4375 C-5.07257812 12.28087891 -5.07257812 12.28087891 -6.421875 12.12109375 C-8.88432451 12.00543324 -10.66538064 12.26361305 -13 13 C-13 15.64 -13 18.28 -13 21 C-13.33 21 -13.66 21 -14 21 C-14.33 19.35 -14.66 17.7 -15 16 C-15.40992188 16.48210938 -15.81984375 16.96421875 -16.2421875 17.4609375 C-17.05042969 18.40839844 -17.05042969 18.40839844 -17.875 19.375 C-18.40867187 20.00148438 -18.94234375 20.62796875 -19.4921875 21.2734375 C-20.61432007 22.55836651 -21.79371975 23.79371975 -23 25 C-23.74754827 17.19227365 -22.44955515 11.51830936 -18 5 C-12.43547817 -0.9318619 -7.77575617 -1.88573728 0 0 Z " fill="#152F3B" transform="translate(38,10)"/>
<path d="M0 0 C0.66 0.33 1.32 0.66 2 1 C2.22257053 11.90595611 2.22257053 11.90595611 1 17 C-0.32 17.99 -1.64 18.98 -3 20 C3.93 20.495 3.93 20.495 11 21 C11 26.94 11 32.88 11 39 C10.34 38.67 9.68 38.34 9 38 C9.33 32.72 9.66 27.44 10 22 C0.1 22 -9.8 22 -20 22 C-20 27.28 -20 32.56 -20 38 C-20.33 38 -20.66 38 -21 38 C-21 32.39 -21 26.78 -21 21 C-16.38 20.67 -11.76 20.34 -7 20 C-7.99 19.34 -8.98 18.68 -10 18 C-10.40729228 15.67843403 -10.74438677 13.3431213 -11 11 C-11.33 10.67 -11.66 10.34 -12 10 C-12.07179964 8.48071962 -12.08392007 6.95832518 -12.0625 5.4375 C-12.05347656 4.61121094 -12.04445313 3.78492188 -12.03515625 2.93359375 C-12.02355469 2.29550781 -12.01195312 1.65742188 -12 1 C-7.5859418 -1.58311477 -4.93050159 -0.87476641 0 0 Z " fill="#D8C3BF" transform="translate(37,22)"/>
<path d="M0 0 C4.95 0 9.9 0 15 0 C15.02690844 2.62506802 15.04679404 5.24986173 15.0625 7.875 C15.07087891 8.62136719 15.07925781 9.36773437 15.08789062 10.13671875 C15.11328125 15.7734375 15.11328125 15.7734375 14 18 C8.88361175 20.24621923 6.00772527 20 0 20 C0 13.4 0 6.8 0 0 Z " fill="#E8ECF4" transform="translate(32,44)"/>
<path d="M0 0 C0 3.63 0 7.26 0 11 C-2.31 11.66 -4.62 12.32 -7 13 C-7 15.64 -7 18.28 -7 21 C-7.33 21 -7.66 21 -8 21 C-8.33 19.35 -8.66 17.7 -9 16 C-9.40992188 16.48210938 -9.81984375 16.96421875 -10.2421875 17.4609375 C-11.05042969 18.40839844 -11.05042969 18.40839844 -11.875 19.375 C-12.40867187 20.00148438 -12.94234375 20.62796875 -13.4921875 21.2734375 C-14.61432007 22.55836651 -15.79371975 23.79371975 -17 25 C-17.75007495 17.1658839 -16.42002237 11.55462635 -12 5 C-8.5346677 0.86575638 -5.47835637 -0.65218528 0 0 Z " fill="#1F4459" transform="translate(32,10)"/>
<path d="M0 0 C5.60410557 5.17302053 5.60410557 5.17302053 6 9 C6 9.66 6 10.32 6 11 C6.49113281 11.36738281 6.98226562 11.73476563 7.48828125 12.11328125 C9.90028816 15.12361545 9.31282429 18.50810751 9.1875 22.1875 C9.16719727 23.31188477 9.16719727 23.31188477 9.14648438 24.45898438 C9.11118539 26.30629767 9.05737917 28.15324066 9 30 C7.02 30.99 7.02 30.99 5 32 C5 26.39 5 20.78 5 15 C0.05 15 -4.9 15 -10 15 C-8.68 13.68 -7.36 12.36 -6 11 C-4.35 11 -2.7 11 -1 11 C-0.67 7.37 -0.34 3.74 0 0 Z " fill="#142F3C" transform="translate(43,28)"/>
<path d="M0 0 C0.33 0 0.66 0 1 0 C1.103125 1.093125 1.20625 2.18625 1.3125 3.3125 C1.68753577 7.25306412 1.68753577 7.25306412 5 10 C0.05 10 -4.9 10 -10 10 C-10 15.61 -10 21.22 -10 27 C-11.32 26.34 -12.64 25.68 -14 25 C-14.0809313 22.39521117 -14.14045434 19.79293347 -14.1875 17.1875 C-14.22520508 16.08051758 -14.22520508 16.08051758 -14.26367188 14.95117188 C-14.33655455 9.5821484 -14.33655455 9.5821484 -12.84375 7 C-10.25000829 5.59322484 -8.24296383 5.70907186 -5.3125 5.8125 C-4.31863281 5.83957031 -3.32476562 5.86664063 -2.30078125 5.89453125 C-1.16189453 5.94673828 -1.16189453 5.94673828 0 6 C0 4.02 0 2.04 0 0 Z " fill="#24485C" transform="translate(26,33)"/>
<path d="M0 0 C7.75 0.875 7.75 0.875 10 2 C10.23473541 13.50203528 10.23473541 13.50203528 9 18 C7.02 19.32 5.04 20.64 3 22 C3 15.07 3 8.14 3 1 C2.01 0.67 1.02 0.34 0 0 Z " fill="#F3B9A8" transform="translate(29,21)"/>
<path d="M0 0 C1.5912689 4.873261 2.21192221 8.80790596 2 14 C-0.97 14 -3.94 14 -7 14 C-7.66 12.68 -8.32 11.36 -9 10 C-2.63636364 0 -2.63636364 0 0 0 Z " fill="#1D2130" transform="translate(24,25)"/>
<path d="M0 0 C4.72727273 4.36363636 4.72727273 4.36363636 5.9375 7.1875 C5.9684375 8.0846875 5.9684375 8.0846875 6 9 C5.34 9.66 4.68 10.32 4 11 C2.68 11 1.36 11 0 11 C0 7.37 0 3.74 0 0 Z " fill="#1D4359" transform="translate(43,28)"/>
<path d="M0 0 C0.66 0.33 1.32 0.66 2 1 C2 5.29 2 9.58 2 14 C0.68 14 -0.64 14 -2 14 C-2.21192221 8.80790596 -1.5912689 4.873261 0 0 Z " fill="#020202" transform="translate(40,25)"/>
<path d="M0 0 C0.33 0 0.66 0 1 0 C2.5912689 4.873261 3.21192221 8.80790596 3 14 C1.68 14 0.36 14 -1 14 C-1.02685938 11.85423363 -1.04633088 9.70837355 -1.0625 7.5625 C-1.07410156 6.36753906 -1.08570312 5.17257813 -1.09765625 3.94140625 C-1 1 -1 1 0 0 Z " fill="#020303" transform="translate(23,25)"/>
<path d="M0 0 C0.375 2.25 0.375 2.25 0 5 C-3 7.3125 -3 7.3125 -6 9 C-6 6.69 -6 4.38 -6 2 C-1.125 0 -1.125 0 0 0 Z " fill="#E49A86" transform="translate(38,34)"/>
<path d="M0 0 C2.475 0.495 2.475 0.495 5 1 C5 3.31 5 5.62 5 8 C2.5 6.8125 2.5 6.8125 0 5 C-0.3125 2.3125 -0.3125 2.3125 0 0 Z " fill="#F6BBAA" transform="translate(27,35)"/>
<path d="M0 0 C1.98 0.99 1.98 0.99 4 2 C3.6875 3.9375 3.6875 3.9375 3 6 C2.01 6.33 1.02 6.66 0 7 C0 4.69 0 2.38 0 0 Z " fill="#CFD4E2" transform="translate(32,50)"/>
<path d="M0 0 C0.66 0 1.32 0 2 0 C2 2.31 2 4.62 2 7 C0.68 6.34 -0.64 5.68 -2 5 C-1.34 3.35 -0.68 1.7 0 0 Z " fill="#EAEEF5" transform="translate(30,50)"/>
</svg>
