<?xml version="1.0" standalone="no"?>
<!DOCTYPE svg PUBLIC "-//W3C//DTD SVG 20010904//EN"
 "http://www.w3.org/TR/2001/REC-SVG-20010904/DTD/svg10.dtd">
<svg version="1.0" xmlns="http://www.w3.org/2000/svg"
 width="64.000000pt" height="64.000000pt" viewBox="0 0 64.000000 64.000000"
 preserveAspectRatio="xMidYMid meet">
<metadata>
Created by potrace 1.16, written by Peter Selinger 2001-2019
</metadata>
<g transform="translate(0.000000,64.000000) scale(0.100000,-0.100000)"
fill="#000000" stroke="none">
<path d="M192 619 c-205 -79 -260 -370 -101 -529 28 -28 54 -50 59 -50 6 0 10
38 10 85 l0 85 77 0 c71 0 76 1 56 15 -20 14 -29 42 -39 136 -6 45 -5 47 27
58 23 8 43 8 71 0 l40 -10 -5 -47 c-10 -83 -19 -116 -41 -134 -20 -17 -19 -17
57 -18 l77 0 0 -85 c0 -47 4 -85 9 -85 18 0 100 88 122 131 34 66 38 194 9
272 -29 77 -100 148 -175 176 -74 28 -180 28 -253 0z"/>
</g>
</svg>
